REM DIRINDEX 1\2,1\3,1\4,1\5
REM DIRNAME "folder01","folder02","folder03","folder04","folder05"
TITLE ""
FILE "1Q_t_0759-0768.mp3" MP3
  TRACK 01 AUDIO
    TITLE "3:cjc172_3221"
    INDEX 01 00:00:00
  TRACK 02 AUDIO
    TITLE "0:"
    INDEX 01 00:01:22
  TRACK 03 AUDIO
    TITLE "4:cjc172_3222"
    INDEX 01 00:01:25
  TRACK 04 AUDIO
    TITLE "0:"
    INDEX 01 00:05:11
  TRACK 05 AUDIO
    TITLE "5:cjc172_3223"
    INDEX 01 00:05:17
  TRACK 06 AUDIO
    TITLE "0:"
    INDEX 01 00:12:15
  TRACK 07 AUDIO
    TITLE "3:cjc172_3224"
    INDEX 01 00:12:64
  TRACK 08 AUDIO
    TITLE "0:"
    INDEX 01 00:14:08
  TRACK 09 AUDIO
    TITLE "4:cjc172_3225"
    INDEX 01 00:14:16
  TRACK 10 AUDIO
    TITLE "0:"
    INDEX 01 00:16:13
  TRACK 11 AUDIO
    TITLE "5:cjc172_3226"
    INDEX 01 00:16:21
  TRACK 12 AUDIO
    TITLE "0:"
    INDEX 01 00:22:02
  TRACK 13 AUDIO
    TITLE "3:cjc172_3227"
    INDEX 01 00:22:47
  TRACK 14 AUDIO
    TITLE "0:"
    INDEX 01 00:23:74
  TRACK 15 AUDIO
    TITLE "4:cjc172_3228"
    INDEX 01 00:24:05
  TRACK 16 AUDIO
    TITLE "0:"
    INDEX 01 00:25:30
  TRACK 17 AUDIO
    TITLE "5:cjc172_3229"
    INDEX 01 00:25:36
  TRACK 18 AUDIO
    TITLE "0:"
    INDEX 01 00:30:09
  TRACK 19 AUDIO
    TITLE "3:cjc172_3230"
    INDEX 01 00:30:56
  TRACK 20 AUDIO
    TITLE "0:"
    INDEX 01 00:32:01
  TRACK 21 AUDIO
    TITLE "4:cjc172_3231"
    INDEX 01 00:32:10
  TRACK 22 AUDIO
    TITLE "0:"
    INDEX 01 00:33:45
  TRACK 23 AUDIO
    TITLE "5:cjc172_3232"
    INDEX 01 00:33:53
  TRACK 24 AUDIO
    TITLE "0:"
    INDEX 01 00:37:58
  TRACK 25 AUDIO
    TITLE "3:cjc172_3233"
    INDEX 01 00:38:30
  TRACK 26 AUDIO
    TITLE "0:"
    INDEX 01 00:39:30
  TRACK 27 AUDIO
    TITLE "4:cjc172_3234"
    INDEX 01 00:39:38
  TRACK 28 AUDIO
    TITLE "0:"
    INDEX 01 00:41:70
  TRACK 29 AUDIO
    TITLE "5:cjc172_3235"
    INDEX 01 00:42:03
  TRACK 30 AUDIO
    TITLE "0:"
    INDEX 01 00:47:67
  TRACK 31 AUDIO
    TITLE "3:cjc172_3236"
    INDEX 01 00:48:41
  TRACK 32 AUDIO
    TITLE "0:"
    INDEX 01 00:49:54
  TRACK 33 AUDIO
    TITLE "4:cjc172_3237"
    INDEX 01 00:49:66
  TRACK 34 AUDIO
    TITLE "0:"
    INDEX 01 00:52:07
  TRACK 35 AUDIO
    TITLE "5:cjc172_3238"
    INDEX 01 00:52:15
  TRACK 36 AUDIO
    TITLE "0:"
    INDEX 01 00:57:57
  TRACK 37 AUDIO
    TITLE "3:cjc172_3239"
    INDEX 01 00:58:29
  TRACK 38 AUDIO
    TITLE "0:"
    INDEX 01 00:59:40
  TRACK 39 AUDIO
    TITLE "4:cjc172_3240"
    INDEX 01 00:59:60
  TRACK 40 AUDIO
    TITLE "0:"
    INDEX 01 01:00:73
  TRACK 41 AUDIO
    TITLE "5:cjc172_3241"
    INDEX 01 01:01:06
  TRACK 42 AUDIO
    TITLE "0:"
    INDEX 01 01:07:07
  TRACK 43 AUDIO
    TITLE "3:cjc172_3242"
    INDEX 01 01:07:60
  TRACK 44 AUDIO
    TITLE "0:"
    INDEX 01 01:08:69
  TRACK 45 AUDIO
    TITLE "4:cjc172_3243"
    INDEX 01 01:09:02
  TRACK 46 AUDIO
    TITLE "0:"
    INDEX 01 01:11:42
  TRACK 47 AUDIO
    TITLE "5:cjc172_3244"
    INDEX 01 01:11:52
  TRACK 48 AUDIO
    TITLE "0:"
    INDEX 01 01:17:70
  TRACK 49 AUDIO
    TITLE "3:cjc172_3245"
    INDEX 01 01:18:46
  TRACK 50 AUDIO
    TITLE "0:"
    INDEX 01 01:19:61
  TRACK 51 AUDIO
    TITLE "4:cjc172_3246"
    INDEX 01 01:19:69
  TRACK 52 AUDIO
    TITLE "0:"
    INDEX 01 01:21:15
  TRACK 53 AUDIO
    TITLE "5:cjc172_3247"
    INDEX 01 01:21:22
  TRACK 54 AUDIO
    TITLE "0:"
    INDEX 01 01:26:49
  TRACK 55 AUDIO
    TITLE "3:cjc172_3248"
    INDEX 01 01:27:21
  TRACK 56 AUDIO
    TITLE "0:"
    INDEX 01 01:28:32
  TRACK 57 AUDIO
    TITLE "4:cjc172_3249"
    INDEX 01 01:28:40
  TRACK 58 AUDIO
    TITLE "0:"
    INDEX 01 01:30:49
  TRACK 59 AUDIO
    TITLE "5:cjc172_3250"
    INDEX 01 01:30:55
  TRACK 60 AUDIO
    TITLE "0:"
    INDEX 01 01:36:16
